<svg xmlns="http://www.w3.org/2000/svg" viewBox="0 0 48 48" width="24" height="24">
  <path fill="#FF9800" d="M37.5,13.2C35.7,9.3,32.3,6.3,28,4.8C25.8,4.1,23.4,3.8,21,4.1c-1.4,0.2-2.8,0.6-4.1,1.2C10.7,8.2,6,14.6,5.1,21.9c-1.2,9.6,4.8,18.7,14.4,20.6c9.6,1.9,19-3.9,21.5,13.2c0.3-1.4,0.4-2.8,0.4-4.2C41.4,24.4,40.1,18.1,37.5,13.2z"/>
  <path fill="#FF3D00" d="M24,10c-7.7,0-14,6.3-14,14s6.3,14,14,14s14-6.3,14-14S31.7,10,24,10z"/>
  <path fill="#FFEB3B" d="M34.2,16.5c-1.8-2.6-4.6-4.5-7.8-5.3c-1.4-0.3-2.9-0.4-4.4-0.1c-0.9,0.2-1.8,0.5-2.6,0.9C15.2,14.2,12.2,18.3,11.6,23c-0.8,6.1,3.1,11.9,9.2,13.1c6.1,1.2,12.1-2.5,13.7-8.4C35.2,24.5,35,20.2,34.2,16.5z"/>
  <circle fill="#0288D1" cx="24" cy="24" r="8"/>
</svg>